<svg width="60" height="62" viewBox="0 0 60 62" fill="none" xmlns="http://www.w3.org/2000/svg">
<circle cx="30" cy="32" r="30" fill="#DC2626"/>
<path d="M44.2 41.16C42.8933 40.2 41.4533 39.0933 39.88 37.84C38.3067 36.5867 36.7067 35.2667 35.08 33.88C33.48 32.4667 31.96 31.0933 30.52 29.76C29.48 28.7733 28.5867 28.12 27.84 27.8C27.12 27.4533 26.36 27.4267 25.56 27.72C24.7867 28.0133 23.8 28.6133 22.6 29.52C21.32 30.5067 20.0667 31.44 18.84 32.32C17.64 33.2 16.4933 33.9867 15.4 34.68C14.9733 34.9467 14.5067 35.0267 14 34.92C13.4933 34.8133 13.0933 34.5467 12.8 34.12C12.5333 33.6667 12.4533 33.2 12.56 32.72C12.6933 32.2133 12.9733 31.8267 13.4 31.56C14.4133 30.92 15.5467 30.1867 16.8 29.36C18.0533 28.5067 19.28 27.6133 20.48 26.68C22.1067 25.4 23.5733 24.5733 24.88 24.2C26.2133 23.8 27.52 23.8533 28.8 24.36C30.08 24.84 31.4667 25.7867 32.96 27.2C34 28.16 35.12 29.1467 36.32 30.16C37.52 31.1733 38.7333 32.1733 39.96 33.16C41.1867 34.12 42.36 35.0267 43.48 35.88C44.6 36.7067 45.5867 37.4267 46.44 38.04C46.8933 38.3333 47.16 38.7467 47.24 39.28C47.32 39.8133 47.2 40.2933 46.88 40.72C46.5867 41.1467 46.1733 41.4133 45.64 41.52C45.1333 41.6 44.6533 41.48 44.2 41.16ZM40.04 26.64C38.9733 26.64 38.0533 26.2533 37.28 25.48C36.5067 24.7067 36.12 23.7867 36.12 22.72C36.12 21.6267 36.5067 20.6933 37.28 19.92C38.0533 19.1467 38.9733 18.76 40.04 18.76C41.1333 18.76 42.0533 19.1467 42.8 19.92C43.5733 20.6933 43.96 21.6267 43.96 22.72C43.96 23.7867 43.5733 24.7067 42.8 25.48C42.0533 26.2533 41.1333 26.64 40.04 26.64ZM40.04 24.68C40.6 24.68 41.0667 24.4933 41.44 24.12C41.84 23.72 42.04 23.2533 42.04 22.72C42.04 22.16 41.84 21.6933 41.44 21.32C41.0667 20.92 40.6 20.72 40.04 20.72C39.5067 20.72 39.04 20.92 38.64 21.32C38.2667 21.6933 38.08 22.16 38.08 22.72C38.08 23.2533 38.2667 23.72 38.64 24.12C39.04 24.4933 39.5067 24.68 40.04 24.68Z" fill="white"/>
</svg>
